# xmcd CD database file
#
# Track frame offsets:
#	150
#	11845
#	41275
#	65587
#	96912
#	113522
#	130200
#	145025
#	166117
#	192957
#	216455
#	237682
#	263335
#	275615
#
# Disc length: 3922 seconds
#
# Revision: 0
# Processed by: cddbd v1.4PL0 Copyright (c) Steve Scherf et al.
# Submitted via: CDex 1.51
#
DISCID=c70f500e
DTITLE=Nina Simone - Moon Of Alabama
DYEAR=1998
DGENRE=Jazz
TTITLE0=Old Jim Crown
TTITLE1=Pirate Jenny
TTITLE2=Don't Smoke In Bed
TTITLE3=Go Limp
TTITLE4=Don't Let Me Be Misunderstood
TTITLE5=Devil's Workshop
TTITLE6=See Line Woman
TTITLE7=Gin House Blues
TTITLE8=Brown Baby
TTITLE9=I'm Gonna Say
TTITLE10=Promises
TTITLE11=Children Go Where I Send You
TTITLE12=Zungo
TTITLE13=If He Changed My Name
EXTD=YEAR: 1998
EXTT0=
EXTT1=
EXTT2=
EXTT3=
EXTT4=
EXTT5=
EXTT6=
EXTT7=
EXTT8=
EXTT9=
EXTT10=
EXTT11=
EXTT12=
EXTT13=
PLAYORDER=
